HIERARCHY
ROOT Bip01_Pelvis
{
	OFFSET 0.000000 0.437528 0.000000
	CHANNELS 6 Xposition Yposition Zposition Zrotation Yrotation Xrotation 
	JOINT BN_Fur_R_02
	{
		OFFSET -0.128197 0.210088 0.047880
		CHANNELS 3 Zrotation Yrotation Xrotation
		End Site #name: BN_Fur_R_03
		{
			OFFSET -0.243330 0.077617 -0.317922
		}
	}
	JOINT BN_Fur_L_02
	{
		OFFSET 0.128199 0.210089 0.047868
		CHANNELS 3 Zrotation Yrotation Xrotation
		End Site #name: BN_Fur_L_03
		{
			OFFSET 0.243301 0.077618 -0.317944
		}
	}
	JOINT BN_Tail_01
	{
		OFFSET -0.000009 0.131821 -0.198980
		CHANNELS 3 Zrotation Yrotation Xrotation
		JOINT BN_Tail_02
		{
			OFFSET -0.000020 0.237423 -0.452234
			CHANNELS 3 Zrotation Yrotation Xrotation
			JOINT BN_Tail_03
			{
				OFFSET -0.000018 0.229887 -0.395705
				CHANNELS 3 Zrotation Yrotation Xrotation
				End Site #name: BN_Tail_04
				{
					OFFSET -0.000023 0.071604 -0.516302
				}
			}
		}
	}
	JOINT Bip01_Spine
	{
		OFFSET 0.000005 -0.020834 0.125849
		CHANNELS 3 Zrotation Yrotation Xrotation
		JOINT Bip01_R_Thigh
		{
			OFFSET -0.160209 0.020867 -0.125839
			CHANNELS 3 Zrotation Yrotation Xrotation
			JOINT Bip01_R_Calf
			{
				OFFSET -0.011955 -0.213103 -0.004658
				CHANNELS 3 Zrotation Yrotation Xrotation
				JOINT Bip01_R_Foot
				{
					OFFSET 0.010694 -0.159453 -0.059157
					CHANNELS 3 Zrotation Yrotation Xrotation
					JOINT Bip01_R_Toe0
					{
						OFFSET -0.000878 -0.064882 0.080557
						CHANNELS 3 Zrotation Yrotation Xrotation
						End Site #name: Bip01_R_Toe0Nub
						{
							OFFSET -0.000134 -0.000057 0.012337
						}
					}
				}
			}
		}
		JOINT Bip01_L_Thigh
		{
			OFFSET 0.160202 0.020801 -0.125859
			CHANNELS 3 Zrotation Yrotation Xrotation
			JOINT Bip01_L_Calf
			{
				OFFSET 0.011952 -0.213103 -0.004659
				CHANNELS 3 Zrotation Yrotation Xrotation
				JOINT Bip01_L_Foot
				{
					OFFSET -0.010701 -0.159453 -0.059156
					CHANNELS 3 Zrotation Yrotation Xrotation
					JOINT Bip01_L_Toe0
					{
						OFFSET 0.000885 -0.064882 0.080557
						CHANNELS 3 Zrotation Yrotation Xrotation
						End Site #name: Bip01_L_Toe0Nub
						{
							OFFSET 0.000135 -0.000057 0.012337
						}
					}
				}
			}
		}
		JOINT Bip01_Spine1
		{
			OFFSET 0.000013 -0.005508 0.215359
			CHANNELS 3 Zrotation Yrotation Xrotation
			End Site #name: BN_Fur_L_01
			{
				OFFSET 0.102598 0.158870 0.051528
			}
			End Site #name: BN_Fur_R_01
			{
				OFFSET -0.102646 0.158821 0.051581
			}
			JOINT Bip01_Neck
			{
				OFFSET 0.000051 -0.009422 0.193643
				CHANNELS 3 Zrotation Yrotation Xrotation
				JOINT Bip01_Head
				{
					OFFSET 0.000383 0.147449 0.097835
					CHANNELS 3 Zrotation Yrotation Xrotation
					End Site #name: BN_Mouth_01
					{
						OFFSET 0.002232 -0.115707 0.129462
					}
					End Site #name: Bip01_HeadNub
					{
						OFFSET -0.002993 -0.003651 0.236212
					}
				}
				JOINT Bip01_R_Clavicle
				{
					OFFSET -0.015273 -0.005624 -0.099632
					CHANNELS 3 Zrotation Yrotation Xrotation
					JOINT Bip01_R_UpperArm
					{
						OFFSET -0.130154 -0.018083 -0.000456
						CHANNELS 3 Zrotation Yrotation Xrotation
						JOINT Bip01_R_Forearm
						{
							OFFSET 0.000421 -0.173003 -0.052834
							CHANNELS 3 Zrotation Yrotation Xrotation
							End Site #name: Bip01_R_Hand
							{
								OFFSET 0.003810 -0.157481 0.016147
							}
						}
					}
				}
				JOINT Bip01_L_Clavicle
				{
					OFFSET 0.015445 -0.005725 -0.099600
					CHANNELS 3 Zrotation Yrotation Xrotation
					JOINT Bip01_L_UpperArm
					{
						OFFSET 0.130154 -0.018083 -0.000468
						CHANNELS 3 Zrotation Yrotation Xrotation
						JOINT Bip01_L_Forearm
						{
							OFFSET -0.000426 -0.173003 -0.052834
							CHANNELS 3 Zrotation Yrotation Xrotation
							End Site #name: Bip01_L_Hand
							{
								OFFSET -0.003809 -0.157481 0.016147
							}
						}
					}
				}
			}
		}
	}
}
MOTION
Frames: 6
Frame Time: 0.041667
0.015846 0.381553 0.000587 1.392122 7.064461 0.175060 134.802704 -84.200109 -14.021210 83.641555 -1.885812 -57.217868 141.840219 -53.703947 -76.284370 6.403439 18.766334 -6.464180 47.144997 53.816923 59.955798 -0.507753 -6.165504 10.571937 7.500888 -25.485091 -41.115987 -7.663884 5.881931 47.133086 -2.891948 21.348296 -21.762558 -2.688702 -1.358863 0.117657 2.646718 5.291202 -0.653124 1.752445 -0.254799 13.115786 3.861380 -12.508809 -24.290311 2.705809 3.667112 0.355593 1.385755 -8.593506 1.502623 0.211888 0.016755 17.107372 -4.070736 1.341155 -62.015912 0.696497 -2.084030 -33.050153 -92.445835 -28.972907 64.572960 92.294659 -22.703785 11.110083 -2.885060 4.014458 -52.965439 95.113576 59.970731 79.472405 -77.537461 22.898481 17.967521 
0.012437 0.378520 -0.013855 1.789419 8.456843 0.520334 130.196425 -85.452311 -9.328027 83.290724 -1.340016 -56.978559 140.851063 -54.065234 -75.977074 7.416970 19.443306 -4.546910 49.537095 53.993592 64.653722 -0.167230 -11.568545 8.816646 6.511904 -20.505892 -41.556515 -7.599165 6.020856 48.905771 -3.466234 20.015027 -22.046496 -2.744763 -1.178709 0.933078 2.714932 9.919661 -4.629408 0.633961 0.023135 20.313656 4.183221 -13.174467 -26.333487 2.933852 3.150193 0.839750 0.525525 -6.712047 1.705570 -0.536547 0.043654 16.218748 -5.035050 4.224703 -59.028333 -3.734385 -3.191236 -32.133383 -94.359652 -24.613291 58.865173 92.370643 -22.710056 11.087532 -2.085162 4.160613 -52.088516 106.355343 59.868550 87.449375 -74.317531 22.248479 18.781103 
0.009095 0.375550 -0.028016 2.180462 9.848531 0.886569 118.500438 -86.918418 2.573225 82.814693 -0.658171 -56.703307 139.440639 -54.596056 -75.412165 8.632093 20.148153 -2.124971 52.343709 54.206080 70.443040 0.356261 -16.885086 7.003372 5.567954 -15.241535 -42.138911 -7.527517 6.162717 50.744307 -3.864732 18.422112 -21.928367 -2.777952 -1.067626 1.433971 2.584558 14.568686 -8.277344 -0.317903 0.383359 26.663562 4.303409 -13.821790 -27.994833 3.210495 2.506193 1.437079 -0.308706 -4.864400 1.876088 -1.270770 0.058627 15.347026 -5.828949 7.134498 -56.184699 -7.663367 -4.058846 -31.172909 -95.876875 -21.300107 53.319626 91.200956 -22.610423 11.433729 -1.302108 4.322008 -51.224005 117.312529 59.664803 94.971285 -70.445669 21.405183 19.708319 
0.005301 0.372607 -0.042712 2.563783 11.757807 1.345906 53.275706 -88.142356 68.349576 81.924849 0.541639 -56.266660 136.686675 -55.631254 -74.109334 10.635408 21.122020 2.133569 56.863336 54.513038 80.349505 1.152322 -22.658243 4.927835 5.036743 -8.963019 -44.149956 -7.446260 6.311091 52.701625 -3.817049 16.041333 -19.692031 -2.774920 -0.864433 1.369662 2.717983 19.942249 -11.267682 -0.949986 0.692955 31.049922 3.703035 -14.914270 -28.466971 3.675975 1.378423 2.469068 -1.185915 -3.007832 2.065844 -2.002685 0.015921 14.351059 -6.374533 10.342282 -53.325255 -10.819667 -4.517712 -30.086302 -95.182159 -20.935774 47.305499 86.314013 -22.122525 12.856112 -0.528581 4.577112 -50.226925 133.209597 62.345087 106.252246 -61.604002 19.240278 21.592963 
0.002230 0.369529 -0.056831 2.930310 12.966754 1.827505 2.199028 -85.884181 120.203949 80.835317 1.876792 -55.850137 132.947230 -56.928278 -71.989519 12.826822 21.798467 6.976429 61.829309 54.589760 91.530343 2.195988 -27.903614 2.754438 3.764950 -1.650309 -44.313623 -7.334725 6.497045 55.211000 -3.666677 13.021863 -18.657685 -2.697363 -1.301184 0.224859 2.517307 24.947335 -13.531475 -1.386281 0.943371 34.182553 2.871820 -15.258899 -28.637489 4.163993 0.128735 3.593108 -1.988875 -1.109945 2.147422 -2.759366 0.046056 13.555809 -6.942847 13.440135 -50.835314 -12.375957 -4.677054 -29.238350 -93.567702 -20.609577 42.164703 79.399859 -21.237346 14.787521 0.269608 4.845505 -49.418947 143.577979 61.929585 112.478137 -56.722192 17.913349 22.480259 
0.001068 0.366285 -0.068549 3.225928 12.260446 2.247556 -8.226650 -83.069489 131.523743 79.859000 3.000206 -55.443383 128.560070 -58.321174 -69.022831 14.478820 21.817145 11.125390 66.014805 54.722460 101.284371 3.268425 -31.414187 0.854155 1.376203 7.685120 -38.172163 -7.134272 6.790999 59.329840 -3.187145 9.008647 -23.717657 -2.390273 -3.844888 -2.789435 1.616833 28.263938 -14.661452 -1.670525 1.124214 36.279204 2.230916 -13.642968 -29.312682 4.559932 -0.946127 4.544401 -2.572354 0.790386 1.994474 -3.546952 0.306810 13.315108 -7.850091 15.870668 -49.310427 -10.795679 -4.564039 -29.019126 -92.640643 -17.149046 40.034349 71.490081 -19.952196 16.848784 1.100579 5.069095 -49.153003 132.194005 52.391661 99.384717 -68.706671 21.005107 20.105461 
